<svg width="48" height="48" viewBox="0 0 48 48" fill="none" xmlns="http://www.w3.org/2000/svg">
<rect width="48" height="48" rx="16" fill="#F1F1FA"/>
<path d="M12 27.4159C12 27.884 12.38 28.2661 12.848 28.2661H18.785V12.5721L12 19.7189V27.4159ZM27.416 36C27.883 36 28.262 35.6199 28.262 35.1508V29.2123H12.573L19.719 35.999H27.416V36ZM36 20.5861C36.0003 20.4749 35.9785 20.3646 35.936 20.2618C35.8936 20.1589 35.8312 20.0655 35.7524 19.9868C35.6737 19.9082 35.5802 19.8459 35.4774 19.8035C35.3745 19.7611 35.2643 19.7395 35.153 19.7399H29.215V35.4329L35.997 28.2831L36 20.5851V20.5861ZM20.585 12C20.3604 12 20.1449 12.0893 19.9861 12.2481C19.8272 12.407 19.738 12.6225 19.738 12.8472V18.7887H35.426L28.282 12H20.585Z" fill="#126BC5"/>
</svg>
