<svg width="48" height="48" viewBox="0 0 48 48" fill="none" xmlns="http://www.w3.org/2000/svg">
<rect width="48" height="48" rx="16" fill="#F1F1FA"/>
<g clip-path="url(#clip0_1062_5578)">
<path d="M19.3806 28.6293L19.337 28.6711C18.6534 29.3605 17.8622 29.7248 17.0473 29.7248C15.3453 29.7248 14.1107 28.461 14.1107 26.7178C14.1107 24.9773 15.3453 23.7115 17.0473 23.7115C17.8622 23.7115 18.6534 24.0778 19.337 24.7699L19.3806 24.811L20.4751 23.5008L20.4458 23.4658C19.5357 22.4013 18.4432 21.8835 17.1004 21.8835C15.7542 21.8835 14.5215 22.3326 13.6345 23.1412C12.6685 24.0179 12.1604 25.254 12.1604 26.7178C12.1604 28.1816 12.6685 29.4204 13.6345 30.2971C14.5215 31.1104 15.7542 31.5562 17.1004 31.5562C18.4432 31.5562 19.5357 31.0377 20.4458 29.9725L20.4751 29.9402L19.3806 28.6293Z" fill="#004685"/>
<path d="M21.5801 31.3774H23.5133V22.0347H21.5801V31.3774Z" fill="#004685"/>
<path d="M31.0875 29.3466C30.5712 29.6577 30.0916 29.8146 29.6604 29.8146C29.0352 29.8146 28.7522 29.4873 28.7522 28.7602V23.8026H30.7229V22.044H28.7522V19.1367L26.8577 20.1412V22.044H25.2224V23.8026H26.8577V29.0759C26.8577 30.5121 27.7176 31.4951 29.0019 31.5207C29.8733 31.5375 30.3984 31.2803 30.7168 31.0918L30.7372 31.079L31.2018 29.2773L31.0875 29.3466Z" fill="#004685"/>
<path d="M32.6879 31.3774H34.6239V22.0347H32.6879V31.3774Z" fill="#004685"/>
<path d="M35.7515 20.3972C33.9849 17.9208 31.0516 16.4435 28.0674 16.4435C25.0838 16.4435 22.1499 17.9208 20.3867 20.3972L20.2955 20.5244H22.5199L22.5444 20.4982C24.058 18.9509 26.0348 18.1335 28.0674 18.1335C30.1 18.1335 32.0754 18.9509 33.5924 20.4982L33.6168 20.5244H35.8399L35.7515 20.3972Z" fill="#EE1C25"/>
</g>
<defs>
<clipPath id="clip0_1062_5578">
<rect width="24" height="15.4295" fill="white" transform="translate(12 16.2852)"/>
</clipPath>
</defs>
</svg>
