<?xml version="1.0" encoding="UTF-8"?>
<svg version="1.1" xmlns="http://www.w3.org/2000/svg" width="196" height="204">
<path d="M0 0 C0.5878125 0.28504395 1.175625 0.57008789 1.78125 0.86376953 C10.94617371 5.36747032 19.04080543 10.59707252 27 17 C26.41787177 20.26488369 25.47004122 21.90649106 23.12890625 24.234375 C22.55462891 24.80800781 21.98035156 25.38164063 21.38867188 25.97265625 C20.4847168 26.85244141 20.4847168 26.85244141 19.5625 27.75 C18.96373047 28.35199219 18.36496094 28.95398437 17.74804688 29.57421875 C13.26706881 34 13.26706881 34 11 34 C10.75121094 34.58652344 10.50242188 35.17304687 10.24609375 35.77734375 C8.82588804 38.31056333 7.28816254 39.70985353 5.0625 41.5625 C2.60267986 43.6269098 0.23631078 45.69358543 -2 48 C-5.39810137 46.75520939 -8.09812006 45.33557129 -11 43.1875 C-23.51693726 34.61885838 -38.15290374 32.11307968 -52.9296875 34.68359375 C-66.08235073 37.9246897 -75.38690748 43.56735802 -85 53 C-85.8353125 53.75925781 -86.670625 54.51851562 -87.53125 55.30078125 C-90.46454456 58.50791185 -92.24844065 61.73427926 -94.125 65.625 C-94.47046875 66.33865723 -94.8159375 67.05231445 -95.171875 67.78759766 C-102.24435561 82.75250772 -103.28667621 98.4227218 -98.45703125 114.328125 C-94.40828832 124.53139137 -88.5513941 133.99462065 -80 141 C-79.26394531 141.61230469 -78.52789062 142.22460938 -77.76953125 142.85546875 C-65.42283396 152.30179996 -48.97518909 156.28261085 -33.58984375 154.66015625 C-17.74892913 151.74708272 -3.61345893 145.45884251 6 132 C8.4855113 127.95400588 10.1346808 123.74888193 11.609375 119.24609375 C11.87202148 118.44743896 12.13466797 117.64878418 12.40527344 116.82592773 C12.69966309 115.92209351 12.69966309 115.92209351 13 115 C12.31317642 115.00222061 11.62635284 115.00444122 10.91871643 115.00672913 C3.79794838 115.02877895 -3.32281004 115.04390533 -10.44360352 115.05493164 C-13.10441481 115.05997383 -15.76522332 115.06680736 -18.42602539 115.07543945 C-22.24105516 115.08751009 -26.05604844 115.09322929 -29.87109375 115.09765625 C-31.06899033 115.10281754 -32.2668869 115.10797882 -33.50108337 115.11329651 C-35.15268211 115.11340981 -35.15268211 115.11340981 -36.83764648 115.11352539 C-37.81249496 115.115746 -38.78734344 115.11796661 -39.79173279 115.12025452 C-42 115 -42 115 -43 114 C-43.10106874 111.12735944 -43.13969672 108.27926372 -43.1328125 105.40625 C-43.13376923 104.54439087 -43.13472595 103.68253174 -43.13571167 102.79455566 C-43.1363935 100.96866788 -43.13453904 99.14277769 -43.13037109 97.31689453 C-43.12502286 94.51198922 -43.13031599 91.70724405 -43.13671875 88.90234375 C-43.13605797 87.13281214 -43.13477681 85.36328064 -43.1328125 83.59375 C-43.13483673 82.74897095 -43.13686096 81.90419189 -43.13894653 81.03381348 C-43.11495031 75.11495031 -43.11495031 75.11495031 -42 74 C-39.01701786 73.9047178 -36.05723655 73.87447825 -33.07397461 73.88647461 C-32.13748581 73.88632858 -31.20099701 73.88618256 -30.23612976 73.8860321 C-27.12484461 73.88673163 -24.01361851 73.89452585 -20.90234375 73.90234375 C-18.75142957 73.90420779 -16.60051497 73.90563176 -14.44960022 73.90663147 C-8.77618242 73.91045775 -3.10279005 73.92028898 2.57061768 73.93133545 C8.35501766 73.9415472 14.13942173 73.94612858 19.92382812 73.95117188 C31.28256328 73.96191115 42.64127953 73.97898889 54 74 C54.10263347 80.41872263 54.1719741 86.83722866 54.21972656 93.2565918 C54.23966367 95.43375556 54.26682339 97.61086704 54.30175781 99.7878418 C54.56109019 116.38129994 53.20188804 130.13459978 46.1875 145.375 C45.84275635 146.13538574 45.4980127 146.89577148 45.14282227 147.67919922 C42.44596347 153.43901184 39.29406555 158.29006774 35 163 C34.04867187 164.14275391 34.04867187 164.14275391 33.078125 165.30859375 C29.61955456 169.43172421 29.61955456 169.43172421 28 171 C27.34 171 26.68 171 26 171 C25.67 171.99 25.34 172.98 25 174 C11.34733039 184.93378804 -4.7393212 192.29463454 -22 195 C-23.38699097 195.25583862 -23.38699097 195.25583862 -24.80200195 195.5168457 C-39.5217757 197.74071258 -56.72387277 197.38243906 -71 193 C-71.63228516 192.80664062 -72.26457031 192.61328125 -72.91601562 192.4140625 C-98.63538596 184.30006446 -119.84777503 166.51773007 -133 143 C-135.69892088 137.50331432 -138.05037822 131.80601652 -140 126 C-140.52605835 124.4840625 -140.52605835 124.4840625 -141.06274414 122.9375 C-142.42694484 118.06075487 -142.34379688 113.15726167 -142.37109375 108.125 C-142.38012222 107.08287354 -142.3891507 106.04074707 -142.39845276 104.96704102 C-142.41291983 102.76500297 -142.42183315 100.56292229 -142.42553711 98.36083984 C-142.43736484 95.03797179 -142.48652962 91.71700435 -142.53710938 88.39453125 C-142.63037904 76.2564837 -141.98567045 66.16657987 -137 55 C-136.67008057 54.19788086 -136.34016113 53.39576172 -136.00024414 52.56933594 C-135.17095187 50.62724438 -134.27682633 48.75311578 -133.3125 46.875 C-132.97637695 46.2159668 -132.64025391 45.55693359 -132.29394531 44.87792969 C-119.2392828 20.18474399 -96.35063848 3.11482558 -70.0625 -5.375 C-48.15473648 -12.01371622 -20.47403876 -9.95265773 0 0 Z " fill="#00AA49" transform="translate(142,8)"/>
<path d="M0 0 C0.5878125 0.28504395 1.175625 0.57008789 1.78125 0.86376953 C10.94617371 5.36747032 19.04080543 10.59707252 27 17 C26.41787177 20.26488369 25.47004122 21.90649106 23.12890625 24.234375 C22.55462891 24.80800781 21.98035156 25.38164063 21.38867188 25.97265625 C20.4847168 26.85244141 20.4847168 26.85244141 19.5625 27.75 C18.96373047 28.35199219 18.36496094 28.95398437 17.74804688 29.57421875 C13.26706881 34 13.26706881 34 11 34 C10.75121094 34.58652344 10.50242188 35.17304687 10.24609375 35.77734375 C8.82588804 38.31056333 7.28816254 39.70985353 5.0625 41.5625 C2.60267986 43.6269098 0.23631078 45.69358543 -2 48 C-5.39810137 46.75520939 -8.09812006 45.33557129 -11 43.1875 C-23.51693726 34.61885838 -38.15290374 32.11307968 -52.9296875 34.68359375 C-66.08235073 37.9246897 -75.38690748 43.56735802 -85 53 C-85.8353125 53.75925781 -86.670625 54.51851562 -87.53125 55.30078125 C-90.46454456 58.50791185 -92.24844065 61.73427926 -94.125 65.625 C-94.47046875 66.33865723 -94.8159375 67.05231445 -95.171875 67.78759766 C-102.40536183 83.09318644 -102.61156657 98.55447367 -99 115 C-99.81339844 115.57105469 -100.62679687 116.14210938 -101.46484375 116.73046875 C-109.22411845 122.21084378 -116.82414289 127.86120153 -124.31225586 133.70776367 C-124.99553955 134.23732666 -125.67882324 134.76688965 -126.3828125 135.3125 C-126.98496582 135.78300781 -127.58711914 136.25351563 -128.20751953 136.73828125 C-130.06457577 138.04545459 -131.94648102 139.03683007 -134 140 C-134.96380382 137.81477184 -135.92109439 135.62704614 -136.875 133.4375 C-137.14441406 132.82841797 -137.41382813 132.21933594 -137.69140625 131.59179688 C-137.95566406 130.98271484 -138.21992188 130.37363281 -138.4921875 129.74609375 C-138.73308105 129.19622803 -138.97397461 128.6463623 -139.22216797 128.07983398 C-141.7734952 121.25787646 -142.33171231 115.38508772 -142.37109375 108.125 C-142.38012222 107.08287354 -142.3891507 106.04074707 -142.39845276 104.96704102 C-142.41291983 102.76500297 -142.42183315 100.56292229 -142.42553711 98.36083984 C-142.43736484 95.03797179 -142.48652962 91.71700435 -142.53710938 88.39453125 C-142.63037904 76.2564837 -141.98567045 66.16657987 -137 55 C-136.67008057 54.19788086 -136.34016113 53.39576172 -136.00024414 52.56933594 C-135.17095187 50.62724438 -134.27682633 48.75311578 -133.3125 46.875 C-132.97637695 46.2159668 -132.64025391 45.55693359 -132.29394531 44.87792969 C-119.2392828 20.18474399 -96.35063848 3.11482558 -70.0625 -5.375 C-48.15473648 -12.01371622 -20.47403876 -9.95265773 0 0 Z " fill="#FF3F2B" transform="translate(142,8)"/>
<path d="M0 0 C1.34111343 0.00539291 1.34111343 0.00539291 2.70932007 0.01089478 C3.64580887 0.01074875 4.58229767 0.01060272 5.54716492 0.01045227 C8.65845007 0.01115179 11.76967617 0.01894602 14.88095093 0.02676392 C17.0318651 0.02862796 19.18277971 0.03005192 21.33369446 0.03105164 C27.00711225 0.03487792 32.68050463 0.04470914 38.35391235 0.05575562 C44.13831234 0.06596736 49.92271641 0.07054875 55.7071228 0.07559204 C67.06585796 0.08633131 78.42457421 0.10340906 89.78329468 0.12442017 C89.88592814 6.54314279 89.95526878 12.96164883 90.00302124 19.38101196 C90.02295834 21.55817572 90.05011807 23.7352872 90.08505249 25.91226196 C90.34438486 42.50572011 88.98518271 56.25901995 81.97079468 71.49942017 C81.62605103 72.25980591 81.28130737 73.02019165 80.92611694 73.80361938 C78.23103241 79.55964263 75.08632302 84.42582195 70.78329468 89.12442017 C70.1258728 89.8862561 69.46845093 90.64809204 68.79110718 91.43301392 C67.13935692 93.34678882 65.47069844 95.24211871 63.78329468 97.12442017 C60.49126411 96.51760898 58.54487889 95.40352682 55.94735718 93.31582642 C55.21887573 92.73784302 54.49039429 92.15985962 53.73983765 91.56436157 C52.58572388 90.63502808 52.58572388 90.63502808 51.40829468 89.68692017 C43.70016224 83.57660464 35.84875193 77.75208648 27.78329468 72.12442017 C28.53739624 71.52758423 29.2914978 70.93074829 30.06845093 70.31582642 C38.58306421 63.44287958 43.92933325 55.90907079 47.36825562 45.43447876 C47.63442688 44.62658905 47.90059814 43.81869934 48.17483521 42.98632812 C48.37562683 42.3718985 48.57641846 41.75746887 48.78329468 41.12442017 C48.0964711 41.12664078 47.40964752 41.12886139 46.70201111 41.13114929 C39.58124306 41.15319912 32.46048464 41.16832549 25.33969116 41.17935181 C22.67887987 41.18439399 20.01807136 41.19122753 17.35726929 41.19985962 C13.54223952 41.21193025 9.72724624 41.21764946 5.91220093 41.22207642 C4.11535606 41.22981834 4.11535606 41.22981834 2.2822113 41.23771667 C0.63061256 41.23782997 0.63061256 41.23782997 -1.05435181 41.23794556 C-2.51662453 41.24127647 -2.51662453 41.24127647 -4.00843811 41.24467468 C-6.21670532 41.12442017 -6.21670532 41.12442017 -7.21670532 40.12442017 C-7.31777406 37.2517796 -7.35640204 34.40368388 -7.34951782 31.53067017 C-7.35047455 30.66881104 -7.35143127 29.8069519 -7.35241699 28.91897583 C-7.35309882 27.09308805 -7.35124437 25.26719785 -7.34707642 23.4413147 C-7.34172818 20.63640938 -7.34702131 17.83166421 -7.35342407 15.02676392 C-7.35276329 13.25723231 -7.35148213 11.4877008 -7.34951782 9.71817017 C-7.35154205 8.87339111 -7.35356628 8.02861206 -7.35565186 7.15823364 C-7.32683872 0.05123931 -7.08539291 0.01203761 0 0 Z " fill="#0085F9" transform="translate(106.21670532226563,81.87557983398438)"/>
<path d="M0 0 C4.30735291 1.45164932 7.55326723 3.75490085 11.0625 6.5625 C12.20907349 7.46295556 13.35622267 8.3626785 14.50390625 9.26171875 C15.08285645 9.71724121 15.66180664 10.17276367 16.25830078 10.64208984 C19.90706665 13.48683834 23.63280678 16.22936988 27.34375 18.9921875 C29.93405482 20.9501532 32.47445324 22.95943142 35 25 C34.855625 25.58523437 34.71125 26.17046875 34.5625 26.7734375 C31.77329311 39.67351936 32.17610209 53.14117917 35 66 C34.18660156 66.57105469 33.37320313 67.14210938 32.53515625 67.73046875 C24.77588155 73.21084378 17.17585711 78.86120153 9.68774414 84.70776367 C9.00446045 85.23732666 8.32117676 85.76688965 7.6171875 86.3125 C7.01503418 86.78300781 6.41288086 87.25351563 5.79248047 87.73828125 C3.93542423 89.04545459 2.05351898 90.03683007 0 91 C-0.96380382 88.81477184 -1.92109439 86.62704614 -2.875 84.4375 C-3.14441406 83.82841797 -3.41382813 83.21933594 -3.69140625 82.59179688 C-3.95566406 81.98271484 -4.21992187 81.37363281 -4.4921875 80.74609375 C-4.73308105 80.19622803 -4.97397461 79.6463623 -5.22216797 79.07983398 C-7.7734952 72.25787646 -8.33171231 66.38508772 -8.37109375 59.125 C-8.38012222 58.08287354 -8.3891507 57.04074707 -8.39845276 55.96704102 C-8.41291983 53.76500297 -8.42183315 51.56292229 -8.42553711 49.36083984 C-8.43736484 46.03797179 -8.48652962 42.71700435 -8.53710938 39.39453125 C-8.65141994 24.41520793 -6.86906889 13.41876316 0 0 Z " fill="#FEBD00" transform="translate(8,57)"/>
</svg>
