<svg width="25" height="24" viewBox="0 0 25 24" fill="none" xmlns="http://www.w3.org/2000/svg">
<path fill-rule="evenodd" clip-rule="evenodd" d="M11.6082 1.21065C11.9693 0.929784 12.475 0.929784 12.8361 1.21065L21.8361 8.21065C22.0797 8.4001 22.2222 8.69141 22.2222 9V20C22.2222 20.7957 21.9061 21.5587 21.3435 22.1213C20.7809 22.6839 20.0178 23 19.2222 23H5.22217C4.42652 23 3.66346 22.6839 3.10085 22.1213C2.53824 21.5587 2.22217 20.7957 2.22217 20V9C2.22217 8.69141 2.36464 8.4001 2.60823 8.21065L11.6082 1.21065ZM4.22217 9.48908V20C4.22217 20.2652 4.32752 20.5196 4.51506 20.7071C4.7026 20.8946 4.95695 21 5.22217 21H19.2222C19.4874 21 19.7417 20.8946 19.9293 20.7071C20.1168 20.5196 20.2222 20.2652 20.2222 20V9.48908L12.2222 3.26686L4.22217 9.48908Z" fill="#0071FF"/>
<path fill-rule="evenodd" clip-rule="evenodd" d="M8.22217 12C8.22217 11.4477 8.66988 11 9.22217 11H15.2222C15.7745 11 16.2222 11.4477 16.2222 12V22C16.2222 22.5523 15.7745 23 15.2222 23C14.6699 23 14.2222 22.5523 14.2222 22V13H10.2222V22C10.2222 22.5523 9.77445 23 9.22217 23C8.66988 23 8.22217 22.5523 8.22217 22V12Z" fill="#0071FF"/>
</svg>
