<svg width="48" height="48" viewBox="0 0 48 48" fill="none" xmlns="http://www.w3.org/2000/svg">
<rect width="48" height="48" rx="16" fill="#F1F1FA"/>
<g clip-path="url(#clip0_1062_5602)">
<path d="M31.0862 13.8682C29.9788 12.6061 27.9771 12.0649 25.4164 12.0649H17.9843C17.731 12.065 17.4859 12.1553 17.2932 12.3199C17.1005 12.4844 16.9729 12.7122 16.9332 12.9625L13.8386 32.589C13.7771 32.976 14.0768 33.3265 14.469 33.3265H19.0573L20.2096 26.0175L20.1739 26.2464C20.256 25.7298 20.6978 25.3487 21.2211 25.3487H23.4014C27.6847 25.3487 31.0386 23.6089 32.0183 18.5762C32.0474 18.4273 32.0726 18.2825 32.0943 18.1409C31.9707 18.0754 31.9707 18.0754 32.0943 18.1409C32.3861 16.2808 32.0923 15.0146 31.0862 13.8682Z" fill="#27346A"/>
<path d="M21.9653 17.4708C22.0907 17.4111 22.2279 17.3801 22.3669 17.3802H28.1935C28.8834 17.3802 29.527 17.4251 30.1151 17.5198C30.2796 17.546 30.4433 17.5773 30.6059 17.6137C30.8364 17.6646 31.0643 17.7268 31.2886 17.8002C31.5777 17.8968 31.8469 18.0092 32.0944 18.1409C32.3861 16.28 32.0924 15.0146 31.0862 13.8682C29.9782 12.6061 27.9771 12.0649 25.4164 12.0649H17.9837C17.4604 12.0649 17.0152 12.4459 16.9332 12.9625L13.8386 32.5883C13.7771 32.9759 14.0768 33.3259 14.4684 33.3259H19.0573L21.448 18.1654C21.4715 18.0164 21.5309 17.8753 21.621 17.7543C21.7111 17.6333 21.8293 17.536 21.9653 17.4708Z" fill="#27346A"/>
<path d="M32.0183 18.5759C31.0385 23.6079 27.6847 25.3484 23.4014 25.3484H21.2204C20.6972 25.3484 20.2552 25.7295 20.1739 26.2461L18.7404 35.3339C18.6868 35.6726 18.9487 35.9795 19.2914 35.9795H23.1592C23.3808 35.9795 23.5951 35.9004 23.7635 35.7564C23.932 35.6125 24.0435 35.4132 24.0781 35.1944L24.1158 34.9973L24.8448 30.3772L24.8918 30.1219C24.9264 29.903 25.0379 29.7038 25.2064 29.5598C25.3748 29.4159 25.589 29.3368 25.8106 29.3367H26.3895C30.1362 29.3367 33.07 27.8145 33.9274 23.4122C34.2852 21.5725 34.1001 20.0365 33.1534 18.9576C32.8663 18.6308 32.5097 18.3609 32.0943 18.1406C32.0718 18.2829 32.0474 18.427 32.0183 18.5759Z" fill="#2790C3"/>
<path d="M31.069 17.7323C30.9163 17.6877 30.7621 17.6482 30.6067 17.6139C30.444 17.5782 30.2803 17.547 30.1158 17.5206C29.5271 17.4254 28.884 17.3804 28.1934 17.3804H22.3675C22.2285 17.3801 22.0912 17.4113 21.966 17.4717C21.8298 17.5367 21.7115 17.6339 21.6214 17.755C21.5312 17.876 21.4719 18.0172 21.4486 18.1663L20.2103 26.0177L20.1746 26.2466C20.256 25.73 20.6979 25.3489 21.2212 25.3489H23.4022C27.6854 25.3489 31.0392 23.6092 32.019 18.5764C32.0481 18.4276 32.0726 18.2833 32.0951 18.1411C31.847 18.0102 31.5785 17.897 31.2893 17.8011C31.2163 17.7769 31.1429 17.754 31.0691 17.7323" fill="#1F264F"/>
</g>
<defs>
<clipPath id="clip0_1062_5602">
<rect width="20.3444" height="24" fill="white" transform="translate(13.8278 12)"/>
</clipPath>
</defs>
</svg>
