<svg width="25" height="24" viewBox="0 0 25 24" fill="none" xmlns="http://www.w3.org/2000/svg">
<path fill-rule="evenodd" clip-rule="evenodd" d="M5.4088 15.4645C6.34648 14.5268 7.61825 14 8.94434 14H16.9443C18.2704 14 19.5422 14.5268 20.4799 15.4645C21.4176 16.4021 21.9443 17.6739 21.9443 19V21C21.9443 21.5523 21.4966 22 20.9443 22C20.3921 22 19.9443 21.5523 19.9443 21V19C19.9443 18.2044 19.6283 17.4413 19.0657 16.8787C18.503 16.3161 17.74 16 16.9443 16H8.94434C8.14869 16 7.38562 16.3161 6.82302 16.8787C6.26041 17.4413 5.94434 18.2044 5.94434 19V21C5.94434 21.5523 5.49662 22 4.94434 22C4.39205 22 3.94434 21.5523 3.94434 21V19C3.94434 17.6739 4.47112 16.4021 5.4088 15.4645Z" fill="black"/>
<path fill-rule="evenodd" clip-rule="evenodd" d="M12.9443 4C11.2875 4 9.94434 5.34315 9.94434 7C9.94434 8.65685 11.2875 10 12.9443 10C14.6012 10 15.9443 8.65685 15.9443 7C15.9443 5.34315 14.6012 4 12.9443 4ZM7.94434 7C7.94434 4.23858 10.1829 2 12.9443 2C15.7058 2 17.9443 4.23858 17.9443 7C17.9443 9.76142 15.7058 12 12.9443 12C10.1829 12 7.94434 9.76142 7.94434 7Z" fill="black"/>
</svg>
